# xmcd CD database file
#
# Track frame offsets:
#	150
#	26130
#	58730
#	84475
#
# Disc length: 1442 seconds
#
# Revision: 0
# Processed by: cddbd v1.5PL3 Copyright (c) Steve Scherf et al.
# Submitted via: CDex 1.51
#
DISCID=2d05a004
DTITLE=ハイポジ - 体と歌だけの関係リミックス
DYEAR=1995
DGENRE=JPop
TTITLE0=BODY meets SING TAMBER LOCO MIX.
TTITLE1=BODY meets SING DUMBEK MIX.
TTITLE2=BODY meets SING TAMBER LOCO MIX. instrumental.
TTITLE3=BODY meets SING RADIO EDIT. original short version
EXTD=YEAR: 1995
EXTT0=
EXTT1=
EXTT2=
EXTT3=
PLAYORDER=
